<svg width="46" height="46" viewBox="0 0 46 46" fill="none" xmlns="http://www.w3.org/2000/svg">
<circle cx="23" cy="23" r="23" fill="#F4F4F4"/>
<g clip-path="url(#clip0_4430_23452)">
<path d="M30 14H29.492L27.308 11.168C27.0265 10.8058 26.6663 10.5124 26.2547 10.3101C25.843 10.1077 25.3907 10.0017 24.932 10H21.068C20.6093 10.0017 20.157 10.1077 19.7453 10.3101C19.3337 10.5124 18.9735 10.8058 18.692 11.168L16.508 14H16C14.6744 14.0016 13.4036 14.5289 12.4662 15.4662C11.5289 16.4036 11.0016 17.6744 11 19V29C11.0016 30.3256 11.5289 31.5964 12.4662 32.5338C13.4036 33.4711 14.6744 33.9984 16 34H30C31.3256 33.9984 32.5964 33.4711 33.5338 32.5338C34.4711 31.5964 34.9984 30.3256 35 29V19C34.9984 17.6744 34.4711 16.4036 33.5338 15.4662C32.5964 14.5289 31.3256 14.0016 30 14ZM20.276 12.39C20.3697 12.2691 20.4897 12.1711 20.6269 12.1035C20.7642 12.0359 20.915 12.0005 21.068 12H24.932C25.085 12.0007 25.2357 12.0361 25.373 12.1037C25.5102 12.1713 25.6302 12.2692 25.724 12.39L26.966 14H19.034L20.276 12.39ZM33 29C33 29.7956 32.6839 30.5587 32.1213 31.1213C31.5587 31.6839 30.7956 32 30 32H16C15.2044 32 14.4413 31.6839 13.8787 31.1213C13.3161 30.5587 13 29.7956 13 29V19C13 18.2044 13.3161 17.4413 13.8787 16.8787C14.4413 16.3161 15.2044 16 16 16H30C30.7956 16 31.5587 16.3161 32.1213 16.8787C32.6839 17.4413 33 18.2044 33 19V29Z" fill="#374957"/>
<path d="M23 17.9999C21.8133 17.9999 20.6533 18.3518 19.6666 19.0111C18.6799 19.6704 17.9109 20.6075 17.4567 21.7038C17.0026 22.8002 16.8838 24.0066 17.1153 25.1705C17.3468 26.3344 17.9182 27.4035 18.7574 28.2426C19.5965 29.0817 20.6656 29.6531 21.8295 29.8847C22.9933 30.1162 24.1997 29.9973 25.2961 29.5432C26.3925 29.0891 27.3295 28.3201 27.9888 27.3334C28.6481 26.3467 29 25.1866 29 23.9999C28.9984 22.4091 28.3658 20.8839 27.2409 19.7591C26.116 18.6342 24.5908 18.0015 23 17.9999ZM23 27.9999C22.2089 27.9999 21.4355 27.7653 20.7777 27.3258C20.1199 26.8863 19.6072 26.2616 19.3045 25.5307C19.0017 24.7998 18.9225 23.9955 19.0769 23.2196C19.2312 22.4437 19.6122 21.7309 20.1716 21.1715C20.731 20.6121 21.4437 20.2311 22.2196 20.0768C22.9956 19.9225 23.7998 20.0017 24.5307 20.3044C25.2616 20.6072 25.8864 21.1199 26.3259 21.7777C26.7654 22.4355 27 23.2088 27 23.9999C27 25.0608 26.5786 26.0782 25.8284 26.8284C25.0783 27.5785 24.0609 27.9999 23 27.9999Z" fill="#374957"/>
</g>
<defs>
<clipPath id="clip0_4430_23452">
<rect width="24" height="24" fill="white" transform="translate(11 10)"/>
</clipPath>
</defs>
</svg>
