<svg xmlns="http://www.w3.org/2000/svg" width="24" height="22" viewBox="0 0 24 22" fill="none">
<path d="M24 9.83337H0V5.83337H24V9.83337Z" fill="white"/>
<path d="M21.3333 1.83337C22.8042 1.83337 24 3.02712 24 4.50004V5.83337H0V4.50004C0 3.02712 1.19375 1.83337 2.66667 1.83337H21.3333ZM24 17.8334C24 19.3042 22.8042 20.5 21.3333 20.5H2.66667C1.19375 20.5 0 19.3042 0 17.8334V9.83337H24V17.8334ZM4.66667 15.1667C4.3 15.1667 4 15.4667 4 15.8334C4 16.2 4.3 16.5 4.66667 16.5H7.33333C7.7 16.5 8 16.2 8 15.8334C8 15.4667 7.7 15.1667 7.33333 15.1667H4.66667ZM10 16.5H15.3333C15.7 16.5 16 16.2 16 15.8334C16 15.4667 15.7 15.1667 15.3333 15.1667H10C9.63333 15.1667 9.33333 15.4667 9.33333 15.8334C9.33333 16.2 9.63333 16.5 10 16.5Z" fill="#15151E" fill-opacity="0.8"/>
</svg>